<?xml version="1.0" encoding="utf-8"?>
<!-- Generator: Adobe Illustrator 27.9.0, SVG Export Plug-In . SVG Version: 6.00 Build 0)  -->
<svg version="1.1" xmlns="http://www.w3.org/2000/svg" xmlns:xlink="http://www.w3.org/1999/xlink" x="0px" y="0px"
	 viewBox="0 0 124 24" style="enable-background:new 0 0 124 24;" xml:space="preserve">
<style type="text/css">
	.st0{fill:#2b7463;}
</style>
<path class="st0" d="M1,16.8L2.7,14c1.5,1,3.1,1.5,4.5,1.5c0.8,0,1.2-0.2,1.2-0.7v0c0-0.6-0.7-0.7-2.1-1.1C3.6,13,1.6,12.1,1.6,9.5
	v0c0-2.8,2.2-4.3,5.2-4.3c1.9,0,3.9,0.6,5.4,1.5l-1.6,2.9C9.3,8.8,7.8,8.3,6.8,8.3C6.1,8.3,5.7,8.6,5.7,9v0c0,0.5,0.8,0.7,2.1,1.2
	c2.6,0.7,4.6,1.6,4.6,4.1v0c0,2.9-2.1,4.4-5.3,4.4C4.9,18.7,2.8,18.1,1,16.8z M14.3,13.9V5.4h4.6v7.1c0,1.4,0.7,2.2,1.9,2.2
	s1.9-0.7,1.9-2.2V5.4h4.6v13h-4.6v-1.8c-0.8,1.1-2,2.1-3.9,2.1C15.9,18.7,14.3,16.9,14.3,13.9z M29.6,5.4h4.6v1.8
	c0.8-1.1,2-2.1,3.9-2.1c2.8,0,4.4,1.8,4.4,4.8v8.5H38v-7.1c0-1.4-0.7-2.2-1.9-2.2s-1.9,0.8-1.9,2.2v7.1h-4.6V5.4z M44.9,5.4h4.6v1.8
	c0.8-1.1,2-2.1,3.9-2.1c2.8,0,4.4,1.8,4.4,4.8v8.5h-4.6v-7.1c0-1.4-0.7-2.2-1.9-2.2s-1.9,0.8-1.9,2.2v7.1h-4.6V5.4z M73.5,16.8
	l1.7-2.7c1.5,1,3.1,1.5,4.5,1.5c0.8,0,1.2-0.2,1.2-0.7v0c0-0.6-0.7-0.7-2.1-1.1c-2.6-0.7-4.6-1.5-4.6-4.1v0c0-2.8,2.2-4.3,5.2-4.3
	c1.9,0,3.9,0.6,5.4,1.5l-1.6,2.9c-1.3-0.8-2.8-1.2-3.9-1.2c-0.7,0-1.1,0.3-1.1,0.7v0c0,0.5,0.8,0.7,2.1,1.2c2.6,0.7,4.6,1.6,4.6,4.1
	v0c0,2.9-2.1,4.4-5.3,4.4C77.4,18.7,75.3,18.1,73.5,16.8z M88.5,0.8h1.4c0.9,0,1.7,0.8,1.7,1.7v0c0,0.9-0.8,1.7-1.7,1.7h-1.4
	c-0.9,0-1.7-0.8-1.7-1.7v0C86.9,1.6,87.6,0.8,88.5,0.8z M86.9,5.4h4.6v13h-4.6V5.4z M93.6,12L93.6,12c0-4.3,2.7-6.9,5.8-6.9
	c2,0,3.1,0.9,4,1.9V0.8h4.6v17.6h-4.6v-1.7c-0.9,1.1-2,2-3.9,2C96.3,18.7,93.6,16.1,93.6,12z M103.4,11.9L103.4,11.9
	c0-1.8-1.2-3-2.7-3c-1.4,0-2.7,1.2-2.7,3v0c0,1.7,1.2,3,2.7,3C102.2,14.9,103.4,13.7,103.4,11.9z M109.9,12L109.9,12
	c0-3.8,2.7-6.9,6.6-6.9c4.5,0,6.6,3.3,6.6,7.1c0,0.3,0,0.6,0,0.9h-8.7c0.4,1.4,1.4,2.1,2.8,2.1c1.1,0,2-0.4,2.9-1.3l2.5,2.1
	c-1.3,1.6-3,2.6-5.6,2.6C112.8,18.7,109.9,16,109.9,12z M118.7,10.8c-0.2-1.4-1-2.4-2.3-2.4c-1.2,0-2,0.9-2.3,2.4H118.7z M68.7,5.4
	l-2.5,7.9l-2.6-7.9h-4.8L64,18.2l0,0c0,0,0,0,0,0l-1.3,4.1l-0.3,0.9h4.3l1.9-5l4.8-12.7H68.7z"/>
	
</svg>
