<?xml version="1.0" encoding="utf-8"?>
<!-- Generator: Adobe Illustrator 27.9.0, SVG Export Plug-In . SVG Version: 6.00 Build 0)  -->
<svg version="1.1" id="Шар_1" xmlns="http://www.w3.org/2000/svg" xmlns:xlink="http://www.w3.org/1999/xlink" x="0px" y="0px"
	 viewBox="0 0 90 30" style="enable-background:new 0 0 90 30;" xml:space="preserve">
<style type="text/css">
	.st0{fill:#212121;}
</style>
<g>
	<path class="st0" d="M9.366,24.609h11.072v1.602H7.456V3.789h1.909V24.609z"/>
	<path class="st0" d="M39.64,16.217c0,2.063-0.357,3.875-1.07,5.436c-0.714,1.561-1.733,2.762-3.057,3.603s-2.854,1.263-4.589,1.263
		c-2.618,0-4.733-0.937-6.344-2.811c-1.611-1.873-2.418-4.401-2.418-7.583v-2.31c0-2.042,0.363-3.852,1.086-5.428
		c0.724-1.576,1.747-2.787,3.071-3.634s2.849-1.27,4.574-1.27s3.246,0.416,4.567,1.247c1.319,0.832,2.338,2.007,3.056,3.526
		c0.718,1.52,1.093,3.28,1.124,5.282V16.217z M37.746,13.783c0-2.7-0.61-4.814-1.832-6.344c-1.222-1.529-2.895-2.294-5.02-2.294
		c-2.084,0-3.745,0.768-4.981,2.302c-1.238,1.535-1.856,3.678-1.856,6.429v2.341c0,2.658,0.616,4.767,1.848,6.321
		c1.232,1.557,2.905,2.334,5.02,2.334c2.146,0,3.819-0.767,5.02-2.303c1.201-1.534,1.802-3.672,1.802-6.413V13.783z"/>
	<path class="st0" d="M60.599,23.546c-0.655,0.934-1.685,1.663-3.085,2.187c-1.403,0.524-2.971,0.785-4.707,0.785
		c-1.755,0-3.315-0.421-4.681-1.263c-1.365-0.841-2.423-2.033-3.172-3.573s-1.13-3.305-1.14-5.297v-2.833
		c0-3.111,0.785-5.567,2.356-7.368c1.571-1.802,3.68-2.703,6.329-2.703c2.31,0,4.169,0.588,5.574,1.763
		c1.408,1.176,2.243,2.795,2.511,4.858h-1.895c-0.277-1.648-0.946-2.896-2.007-3.746c-1.064-0.849-2.453-1.274-4.166-1.274
		c-2.094,0-3.752,0.745-4.975,2.234c-1.222,1.49-1.832,3.591-1.832,6.304v2.65c0,1.705,0.29,3.214,0.871,4.523
		c0.58,1.31,1.411,2.325,2.496,3.043c1.081,0.72,2.327,1.079,3.732,1.079c1.632,0,3.035-0.256,4.205-0.77
		c0.759-0.339,1.324-0.734,1.694-1.186v-5.79h-6.022V15.57h7.915V23.546z"/>
	<path class="st0" d="M82.544,16.217c0,2.063-0.357,3.875-1.07,5.436c-0.714,1.561-1.733,2.762-3.057,3.603
		c-1.324,0.841-2.854,1.263-4.589,1.263c-2.618,0-4.733-0.937-6.344-2.811c-1.611-1.873-2.418-4.401-2.418-7.583v-2.31
		c0-2.042,0.363-3.852,1.085-5.428c0.725-1.576,1.748-2.787,3.073-3.634c1.324-0.847,2.849-1.27,4.574-1.27s3.246,0.416,4.567,1.247
		c1.319,0.832,2.338,2.007,3.056,3.526c0.718,1.52,1.093,3.28,1.124,5.282V16.217z M80.65,13.783c0-2.7-0.61-4.814-1.832-6.344
		c-1.222-1.529-2.895-2.294-5.02-2.294c-2.084,0-3.745,0.768-4.981,2.302c-1.238,1.535-1.856,3.678-1.856,6.429v2.341
		c0,2.658,0.616,4.767,1.848,6.321c1.232,1.557,2.905,2.334,5.02,2.334c2.146,0,3.819-0.767,5.02-2.303
		c1.201-1.534,1.802-3.672,1.802-6.413V13.783z"/>
</g>
<g>
</g>
<g>
</g>
<g>
</g>
<g>
</g>
<g>
</g>
<g>
</g>
<g>
</g>
<g>
</g>
<g>
</g>
<g>
</g>
<g>
</g>
<g>
</g>
<g>
</g>
<g>
</g>
<g>
</g>
</svg>
